<?xml version="1.0"?>
<svg xmlns="http://www.w3.org/2000/svg" xmlns:xlink="http://www.w3.org/1999/xlink" xmlns:svgjs="http://svgjs.com/svgjs" version="1.1" width="512" height="512" x="0" y="0" viewBox="0 0 511.99981 511" style="enable-background:new 0 0 512 512" xml:space="preserve" class=""><g><path xmlns="http://www.w3.org/2000/svg" d="m511.128906 332.03125c-2.886718-14.121094-12.589844-25.761719-25.960937-31.136719-15.109375-6.078125-32.660157-2.9375-44.722657 8.003907l-63.605468 57.695312c-5.742188 5.203125-13.167969 8.070312-20.917969 8.070312h-39.4375c1.082031-4.164062 1.574219-8.496093 1.398437-12.859374-.492187-12.257813-6.121093-23.859376-15.445312-31.832032-46.773438-39.992187-106.421875-62.015625-167.960938-62.015625h-33.757812v-13.019531c0-5.523438-4.476562-10-10-10h-80.71875c-5.523438 0-10 4.476562-10 10v207.5625c0 5.523438 4.476562 10 10 10h80.71875c5.523438 0 10-4.476562 10-10v-13.804688c26.335938 15.441407 56.703125 23.804688 87.296875 23.804688h35.984375c5.523438 0 10-4.476562 10-10 0-5.519531-4.476562-10-10-10h-35.984375c-31.0625 0-61.863281-9.753906-87.296875-27.542969v-137h33.757812c56.777344 0 111.8125 20.320313 154.964844 57.214844 5.179688 4.433594 8.183594 10.625 8.460938 17.4375.269531 6.8125-2.226563 13.226563-7.035156 18.058594-8.378907 8.417969-21.488282 9.542969-31.175782 2.675781l-23.300781-16.519531c-15.417969-10.929688-33.558594-16.707031-52.457031-16.707031-5.523438 0-10 4.476562-10 10 0 5.523437 4.476562 10 10 10 14.730468 0 28.871094 4.503906 40.894531 13.023437l23.296875 16.519531c7.75 5.488282 16.695312 8.183594 25.589844 8.183594 11.410156 0 22.734375-4.433594 31.328125-13.070312.035156-.035157.066406-.070313.101562-.105469h50.777344c12.726563 0 24.929687-4.710938 34.355469-13.261719l63.605468-57.691406c6.425782-5.828125 15.773438-7.5 23.820313-4.265625 7.230469 2.90625 12.269531 8.953125 13.828125 16.585937 1.558594 7.632813-.707031 15.171875-6.214844 20.683594l-60.222656 60.21875c-22.933594 22.9375-53.429688 35.566406-85.863281 35.566406h-35.230469c-5.519531 0-10 4.480469-10 10 0 5.523438 4.480469 10 10 10h35.230469c37.777343 0 73.296875-14.710937 100.007812-41.421875l60.222657-60.222656c10.1875-10.195313 14.550781-24.707031 11.667968-38.828125zm-430.410156 120.472656h-60.71875v-187.566406h60.71875zm0 0" fill="#000000" data-original="#000000" style="" class=""/><path xmlns="http://www.w3.org/2000/svg" d="m264 452.503906c-2.628906 0-5.207031 1.066406-7.070312 2.929688-1.859376 1.859375-2.929688 4.4375-2.929688 7.070312 0 2.628906 1.070312 5.207032 2.929688 7.066406 1.863281 1.863282 4.441406 2.933594 7.070312 2.933594 2.632812 0 5.210938-1.070312 7.070312-2.933594 1.859376-1.859374 2.929688-4.4375 2.929688-7.066406 0-2.632812-1.070312-5.210937-2.929688-7.070312-1.859374-1.859375-4.4375-2.929688-7.070312-2.929688zm0 0" fill="#000000" data-original="#000000" style="" class=""/><path xmlns="http://www.w3.org/2000/svg" d="m305.679688 171.5c26.203124 0 47.523437-21.316406 47.523437-47.523438v-20.949218c0-26.207032-21.320313-47.527344-47.523437-47.527344h-27.078126c-5.523437 0-10 4.480469-10 10v96c0 5.523438 4.476563 10 10 10zm-17.078126-96h17.078126c15.175781 0 27.523437 12.347656 27.523437 27.523438v20.953124c0 15.175782-12.347656 27.523438-27.523437 27.523438h-17.078126zm0 0" fill="#000000" data-original="#000000" style="" class=""/><path xmlns="http://www.w3.org/2000/svg" d="m201.101562 55.5c-4.292968 0-8.109374 2.742188-9.476562 6.8125l-23.058594 68.527344c-.003906.007812-.007812.019531-.011718.03125l-9.234376 27.441406c-1.761718 5.234375 1.054688 10.90625 6.289063 12.667969 5.238281 1.765625 10.90625-1.054688 12.667969-6.289063l7.019531-20.855468h31.609375l7.019531 20.855468c1.402344 4.175782 5.296875 6.8125 9.476563 6.8125 1.054687 0 2.132812-.167968 3.1875-.523437 5.234375-1.761719 8.050781-7.433594 6.289062-12.667969l-32.300781-96c-1.367187-4.070312-5.183594-6.8125-9.476563-6.8125zm-9.078124 68.332031 9.078124-26.972656 9.074219 26.972656zm0 0" fill="#000000" data-original="#000000" style="" class=""/><path xmlns="http://www.w3.org/2000/svg" d="m199.320312 20.5c2.632813 0 5.210938-1.070312 7.070313-2.929688 1.859375-1.859374 2.929687-4.441406 2.929687-7.070312s-1.070312-5.210938-2.929687-7.070312c-1.859375-1.859376-4.4375-2.929688-7.070313-2.929688-2.628906 0-5.210937 1.070312-7.070312 2.929688-1.859375 1.859374-2.929688 4.441406-2.929688 7.070312s1.070313 5.210938 2.929688 7.070312c1.859375 1.859376 4.441406 2.929688 7.070312 2.929688zm0 0" fill="#000000" data-original="#000000" style="" class=""/><path xmlns="http://www.w3.org/2000/svg" d="m114 226.5h284.003906c15.4375 0 28-12.558594 28-28v-170c0-15.4375-12.5625-28-28-28h-158.683594c-5.523437 0-10 4.476562-10 10s4.476563 10 10 10h158.683594c4.410156 0 8 3.589844 8 8v170c0 4.410156-3.589844 8-8 8h-284.003906c-4.410156 0-8-3.589844-8-8v-170c0-4.410156 3.589844-8 8-8h45.320312c5.523438 0 10-4.476562 10-10s-4.476562-10-10-10h-45.320312c-15.4375 0-28 12.5625-28 28v170c0 15.441406 12.5625 28 28 28zm0 0" fill="#000000" data-original="#000000" style="" class=""/></g></svg>
