<?xml version="1.0"?>
<svg xmlns="http://www.w3.org/2000/svg" viewBox="0 0 512 512" width="512" height="512"><g id="Out_line" data-name="Out line"><path d="M488,320h-8V24a8.00039,8.00039,0,0,0-8-8H200a8.00039,8.00039,0,0,0-8,8V80H160a8.00039,8.00039,0,0,0-8,8v88H56a8.00039,8.00039,0,0,0-8,8v40a8.00039,8.00039,0,0,0-8,8v40H24a8.00039,8.00039,0,0,0-8,8v64H32V288h8V448a8.00221,8.00221,0,0,0,1.34375,4.4375l16,24a7.99959,7.99959,0,0,0,13.3125,0l16-24A8.00221,8.00221,0,0,0,88,448V400h64v56a8.00039,8.00039,0,0,0,8,8h80v24a8.00039,8.00039,0,0,0,8,8H488a8.00039,8.00039,0,0,0,8-8V328A8.00039,8.00039,0,0,0,488,320Zm-16,16-72,96a40,40,0,0,1-64,0l-72-96ZM208,32H464V320H440V88a8.00039,8.00039,0,0,0-8-8H208ZM64,192H184v72H88V232a8.00039,8.00039,0,0,0-8-8H64ZM88,296V280h64v16ZM56,240H72v32H56Zm8,217.57812-8-12V288H72V445.57812ZM88,312h96v72H88Zm80,136V400h24a8.00039,8.00039,0,0,0,8-8V304a8.00039,8.00039,0,0,0-8-8H168V280h24a8.00039,8.00039,0,0,0,8-8V184a8.00039,8.00039,0,0,0-8-8H168V96H424V320H248a8.00039,8.00039,0,0,0-8,8V448Zm88,32V352.00049l67.19922,89.59912a56.001,56.001,0,0,0,89.60156,0L480,352.00049V480Z"/><path d="M296,312a79.46156,79.46156,0,0,0,70.60986-42.374c.24854-.12061.498-.23584.74561-.35938l12.22265-6.11133A8.00022,8.00022,0,0,0,384,256V208a7.99951,7.99951,0,0,0-11.57812-7.15527l-2.26319,1.13159a80.01309,80.01309,0,0,0-144.77051-7.59863c-.24756.12036-.49707.23242-.74365.35571l-12.22265,6.11133A8.00022,8.00022,0,0,0,208,208v48a7.99951,7.99951,0,0,0,11.57812,7.15527l2.26319-1.13183A80.13171,80.13171,0,0,0,296,312Zm0-16a64.08933,64.08933,0,0,1-59.7063-40.96045,56.36108,56.36108,0,0,1,54.9065,7.36084,72.46089,72.46089,0,0,0,43.55859,14.61133c2.38965,0,4.78174-.12647,7.16943-.36524A63.57306,63.57306,0,0,1,296,296Zm0-128a64.08913,64.08913,0,0,1,59.70605,40.96,56.36377,56.36377,0,0,1-54.90625-7.36035,72.3441,72.3441,0,0,0-50.73242-14.2417A63.5713,63.5713,0,0,1,296,168Zm-72,44.94434,7.80078-3.90039a56.40781,56.40781,0,0,1,59.39942,5.35644,72.32546,72.32546,0,0,0,76.15527,6.86621L368,220.94434v30.11132l-7.80078,3.90039a56.40763,56.40763,0,0,1-59.39942-5.35644,72.33,72.33,0,0,0-76.15527-6.86621L224,243.05566Z"/></g></svg>
