<?xml version="1.0" encoding="UTF-8"?>
<svg xmlns="http://www.w3.org/2000/svg" id="Outline" viewBox="0 0 512 512" width="512" height="512"><path d="M480,320H440V72a40.045,40.045,0,0,0-40-40H48A40.045,40.045,0,0,0,8,72V344a40.045,40.045,0,0,0,40,40H148.456l-18,48H112a24.028,24.028,0,0,0-24,24v16a8,8,0,0,0,8,8H368a39.851,39.851,0,0,0,27.714-11.2A24,24,0,0,0,416,480h64a24.027,24.027,0,0,0,24-24V344A24.027,24.027,0,0,0,480,320ZM24,72A24.027,24.027,0,0,1,48,48H400a24.027,24.027,0,0,1,24,24v8H24ZM424,96V320h-8a23.885,23.885,0,0,0-8,1.376V248a40.045,40.045,0,0,0-40-40H275.314l-77.657-77.657a8,8,0,0,0-11.314,11.314L252.686,208H240a39.756,39.756,0,0,0-22.042,6.644l-84.3-84.3a8,8,0,1,0-11.314,11.314l84.3,84.3A39.756,39.756,0,0,0,200,248v12.686l-66.343-66.343a8,8,0,1,0-11.314,11.314L200,283.314V320H24V96ZM24,344v-8H200v32H48A24.027,24.027,0,0,1,24,344Zm141.544,40H200v48H147.544ZM104,456a8.009,8.009,0,0,1,8-8h88.805a39.841,39.841,0,0,0,7.217,16H104Zm192,0a8,8,0,1,1,8,8A8.009,8.009,0,0,1,296,456Zm-48-24V256H360V432Zm120,32H326.624a23.944,23.944,0,0,0,0-16H368a8,8,0,0,0,8-8V248a8,8,0,0,0-8-8H240a8,8,0,0,0-8,8V440a8,8,0,0,0,8,8h41.376a23.944,23.944,0,0,0,0,16H240a24.028,24.028,0,0,1-24-24V248a24.028,24.028,0,0,1,24-24H368a24.028,24.028,0,0,1,24,24V440A24.028,24.028,0,0,1,368,464Zm120-8a8.009,8.009,0,0,1-8,8H416a8.009,8.009,0,0,1-8-8V344a8.009,8.009,0,0,1,8-8h64a8.009,8.009,0,0,1,8,8Z"/><path d="M437.657,402.343a8,8,0,0,0-11.314,11.314l32,32a8,8,0,0,0,11.314-11.314Z"/><path d="M437.657,354.343a8,8,0,0,0-11.314,11.314l32,32a8,8,0,0,0,11.314-11.314Z"/><path d="M285.657,338.343a8,8,0,0,0-11.314,11.314l48,48a8,8,0,0,0,11.314-11.314Z"/><path d="M285.657,290.343a8,8,0,0,0-11.314,11.314l48,48a8,8,0,0,0,11.314-11.314Z"/></svg>
