<?xml version="1.0" encoding="utf-8"?>
<!-- Generator: Adobe Illustrator 16.0.3, SVG Export Plug-In . SVG Version: 6.00 Build 0)  -->
<!DOCTYPE svg PUBLIC "-//W3C//DTD SVG 1.1//EN" "http://www.w3.org/Graphics/SVG/1.1/DTD/svg11.dtd">
<svg version="1.1" id="Capa_1" xmlns="http://www.w3.org/2000/svg" xmlns:xlink="http://www.w3.org/1999/xlink" x="0px" y="0px"
	 width="344.869px" height="106px" viewBox="0 0 344.869 106" enable-background="new 0 0 344.869 106" xml:space="preserve">
<g>
	<path fill="#FFFFFF" d="M170.735,94.395l-9.104-20.676h-31.808L120.5,94.395h-13.71l38.882-83.468L184.5,94.395H170.735z
		 M134.649,62.861h22.375l-8.226-18.317c-0.476-1.169-0.97-2.513-1.48-4.031c-0.513-1.517-1.024-3.208-1.536-5.073
		c-0.438,1.755-0.904,3.392-1.398,4.908c-0.493,1.518-0.996,2.916-1.508,4.195L134.649,62.861z"/>
	<path fill="#FFFFFF" d="M204.673,97.52l-27.256-55.115h12.998l11.352,26.16c0.365,0.804,0.805,2.011,1.316,3.619
		s1.041,3.528,1.59,5.758c0.365-1.571,0.795-3.135,1.289-4.689c0.493-1.553,1.088-3.116,1.782-4.688l11.297-26.16h12.942
		L204.673,97.52z"/>
	<path fill="#FFFFFF" d="M235.704,19.921c0-2.01,0.74-3.747,2.221-5.21c1.48-1.462,3.244-2.193,5.293-2.193
		c2.119,0,3.885,0.704,5.291,2.111c1.408,1.408,2.111,3.172,2.111,5.292c0,2.121-0.713,3.903-2.139,5.347
		c-1.426,1.445-3.181,2.167-5.265,2.167c-2.049,0-3.813-0.741-5.293-2.221S235.704,21.969,235.704,19.921z M237.294,94.395V42.405
		h11.9v51.989H237.294z"/>
	<path fill="#FFFFFF" d="M313.569,70.155H272c0.292,4.862,1.735,8.655,4.333,11.379c2.596,2.724,6.051,4.085,10.364,4.085
		c3.839,0,7.038-0.805,9.597-2.413s4.789-4.204,6.691-7.787l10.034,5.595c-2.926,5.229-6.545,9.121-10.856,11.68
		c-4.314,2.56-9.379,3.84-15.191,3.84c-8.336,0-14.972-2.541-19.906-7.623c-4.937-5.082-7.403-11.864-7.403-20.346
		c0-8.153,2.551-14.854,7.649-20.1c5.101-5.246,11.653-7.87,19.66-7.87c8.371,0,14.898,2.396,19.578,7.184
		c4.681,4.79,7.021,11.499,7.021,20.125L313.569,70.155L313.569,70.155z M301.229,62.148c-0.476-3.729-1.9-6.571-4.277-8.528
		c-2.377-1.955-5.631-2.934-9.762-2.934c-3.912,0-7.057,0.951-9.433,2.852c-2.377,1.901-4.041,4.771-4.989,8.61H301.229z"/>
	<path fill="#FFFFFF" d="M323.815,94.395V9.392h11.899v85.002H323.815z"/>
</g>
<polygon fill="#FFFFFF" points="96.784,26.168 66.015,80.461 66.015,64.525 83.856,33.037 65.925,43.235 65.921,43.235 
	61.985,45.472 61.985,101.014 53.925,86.979 22.19,31.741 36.745,40.383 53.925,70.287 53.925,45.974 49.257,43.202 32.725,33.387 
	20.568,26.168 6.373,17.74 23.737,17.74 85.626,17.74 70.802,26.168 37.18,26.168 53.925,36.111 57.742,38.377 61.985,35.965 
	79.222,26.168 91.799,19.017 91.804,19.017 105.128,11.439 "/>
</svg>
